<?xml version="1.0" encoding="utf-8"?>
<!-- Generator: Adobe Illustrator 16.0.3, SVG Export Plug-In . SVG Version: 6.00 Build 0)  -->
<!DOCTYPE svg PUBLIC "-//W3C//DTD SVG 1.1//EN" "http://www.w3.org/Graphics/SVG/1.1/DTD/svg11.dtd">
<svg version="1.1" id="Layer_1" xmlns="http://www.w3.org/2000/svg" xmlns:xlink="http://www.w3.org/1999/xlink" x="0px" y="0px"
	 width="80px" height="78.02px" viewBox="0 0 80 78.02" enable-background="new 0 0 80 78.02" xml:space="preserve">
<g>
	<path fill-rule="evenodd" clip-rule="evenodd" d="M40-0.004c-22.088,0-40,17.908-40,40c0,17.673,11.461,32.666,27.354,37.956
		c1.999,0.37,2.733-0.868,2.733-1.925c0-0.953-0.037-4.105-0.054-7.446c-11.128,2.419-13.476-4.72-13.476-4.72
		c-1.819-4.624-4.441-5.853-4.441-5.853c-3.629-2.483,0.274-2.433,0.274-2.433c4.016,0.282,6.131,4.123,6.131,4.123
		c3.567,6.114,9.357,4.347,11.64,3.325c0.359-2.585,1.396-4.352,2.539-5.35c-8.884-1.011-18.224-4.441-18.224-19.768
		c0-4.367,1.563-7.936,4.122-10.737c-0.416-1.008-1.785-5.076,0.387-10.585c0,0,3.359-1.075,11.002,4.101
		c3.191-0.887,6.613-1.331,10.012-1.347c3.4,0.016,6.824,0.46,10.021,1.347c7.635-5.175,10.988-4.101,10.988-4.101
		c2.178,5.51,0.809,9.578,0.393,10.585c2.564,2.801,4.117,6.37,4.117,10.737c0,15.363-9.357,18.745-18.264,19.736
		c1.434,1.24,2.713,3.676,2.713,7.406c0,5.353-0.047,9.66-0.047,10.978c0,1.064,0.721,2.312,2.748,1.92
		C68.553,72.651,80,57.662,80,39.995C80,17.903,62.092-0.004,40-0.004z"/>
	<path d="M15.15,57.427c-0.088,0.199-0.401,0.259-0.686,0.121c-0.291-0.131-0.453-0.4-0.359-0.6
		c0.086-0.205,0.399-0.262,0.689-0.126C15.085,56.953,15.25,57.228,15.15,57.427L15.15,57.427z M14.658,57.062"/>
	<path d="M16.771,59.233c-0.19,0.177-0.564,0.095-0.817-0.185c-0.262-0.279-0.311-0.652-0.117-0.832
		c0.197-0.176,0.559-0.093,0.82,0.186C16.919,58.684,16.97,59.054,16.771,59.233L16.771,59.233z M16.389,58.823"/>
	<path d="M18.348,61.537c-0.245,0.17-0.646,0.011-0.894-0.345c-0.245-0.355-0.245-0.782,0.006-0.953
		c0.248-0.171,0.643-0.017,0.894,0.335C18.598,60.937,18.598,61.363,18.348,61.537L18.348,61.537z M18.348,61.537"/>
	<path d="M20.508,63.763c-0.219,0.242-0.687,0.177-1.028-0.153c-0.35-0.322-0.447-0.78-0.228-1.022
		c0.222-0.241,0.692-0.173,1.036,0.154C20.636,63.063,20.742,63.523,20.508,63.763L20.508,63.763z M20.508,63.763"/>
	<path d="M23.489,65.056c-0.097,0.313-0.546,0.455-0.999,0.322c-0.453-0.138-0.749-0.505-0.657-0.82
		c0.094-0.315,0.546-0.465,1.002-0.322C23.287,64.372,23.583,64.736,23.489,65.056L23.489,65.056z M23.489,65.056"/>
	<path d="M26.763,65.295c0.011,0.33-0.373,0.603-0.849,0.609c-0.478,0.011-0.866-0.256-0.871-0.581c0-0.334,0.376-0.604,0.854-0.612
		C26.373,64.702,26.763,64.968,26.763,65.295L26.763,65.295z M26.763,65.295"/>
	<path d="M29.809,64.776c0.057,0.322-0.273,0.651-0.746,0.739c-0.464,0.086-0.894-0.113-0.954-0.432
		c-0.058-0.33,0.279-0.661,0.743-0.746C29.325,64.256,29.749,64.449,29.809,64.776L29.809,64.776z M29.809,64.776"/>
</g>
</svg>
