<?xml version="1.0" encoding="utf-8"?>
<!-- Generator: Adobe Illustrator 16.0.3, SVG Export Plug-In . SVG Version: 6.00 Build 0)  -->
<!DOCTYPE svg PUBLIC "-//W3C//DTD SVG 1.1//EN" "http://www.w3.org/Graphics/SVG/1.1/DTD/svg11.dtd">
<svg version="1.1" id="Layer_1" xmlns="http://www.w3.org/2000/svg" xmlns:xlink="http://www.w3.org/1999/xlink" x="0px" y="0px"
	 width="80px" height="78.02px" viewBox="0 0 80 78.02" enable-background="new 0 0 80 78.02" xml:space="preserve">
<g>
	<path fill-rule="evenodd" clip-rule="evenodd" fill="#637077" d="M40.388-0.116c-22.088,0-40,17.908-40,40
		c0,17.674,11.461,32.666,27.354,37.956c1.999,0.37,2.733-0.868,2.733-1.925c0-0.953-0.037-4.104-0.054-7.446
		c-11.128,2.419-13.476-4.72-13.476-4.72c-1.82-4.624-4.441-5.853-4.441-5.853c-3.629-2.483,0.273-2.433,0.273-2.433
		c4.017,0.282,6.132,4.123,6.132,4.123c3.567,6.114,9.357,4.347,11.64,3.325c0.359-2.585,1.396-4.351,2.54-5.35
		c-8.884-1.011-18.225-4.441-18.225-19.768c0-4.367,1.563-7.936,4.122-10.737c-0.416-1.008-1.785-5.076,0.387-10.586
		c0,0,3.359-1.074,11.002,4.101c3.191-0.887,6.613-1.331,10.012-1.347c3.399,0.016,6.824,0.46,10.021,1.347
		c7.636-5.175,10.989-4.101,10.989-4.101c2.177,5.51,0.809,9.578,0.393,10.586c2.564,2.801,4.117,6.37,4.117,10.737
		c0,15.363-9.357,18.745-18.265,19.736c1.435,1.24,2.713,3.676,2.713,7.406c0,5.353-0.047,9.66-0.047,10.978
		c0,1.064,0.721,2.312,2.748,1.92C68.94,72.54,80.388,57.551,80.388,39.884C80.388,17.792,62.479-0.116,40.388-0.116z"/>
	<path fill="#637077" d="M15.538,57.315c-0.088,0.199-0.401,0.259-0.686,0.121c-0.291-0.13-0.453-0.4-0.359-0.6
		c0.086-0.205,0.399-0.262,0.689-0.126C15.473,56.842,15.638,57.116,15.538,57.315L15.538,57.315z M15.045,56.95"/>
	<path fill="#637077" d="M17.158,59.123c-0.191,0.176-0.564,0.094-0.817-0.186c-0.262-0.279-0.311-0.652-0.117-0.832
		c0.197-0.176,0.558-0.093,0.82,0.186C17.306,58.572,17.357,58.942,17.158,59.123L17.158,59.123z M16.776,58.713"/>
	<path fill="#637077" d="M18.735,61.426c-0.245,0.17-0.646,0.012-0.894-0.345c-0.245-0.355-0.245-0.782,0.006-0.953
		c0.248-0.171,0.643-0.017,0.894,0.335C18.986,60.825,18.986,61.252,18.735,61.426L18.735,61.426z M18.735,61.426"/>
	<path fill="#637077" d="M20.896,63.652c-0.219,0.241-0.687,0.176-1.028-0.154c-0.35-0.322-0.447-0.78-0.228-1.022
		c0.223-0.241,0.692-0.173,1.037,0.154C21.024,62.952,21.129,63.412,20.896,63.652L20.896,63.652z M20.896,63.652"/>
	<path fill="#637077" d="M23.876,64.944c-0.097,0.313-0.546,0.455-1,0.322c-0.453-0.138-0.748-0.505-0.657-0.82
		c0.094-0.315,0.546-0.465,1.002-0.322C23.674,64.262,23.97,64.625,23.876,64.944L23.876,64.944z M23.876,64.944"/>
	<path fill="#637077" d="M27.15,65.184c0.011,0.33-0.374,0.603-0.849,0.609c-0.478,0.011-0.866-0.256-0.871-0.581
		c0-0.334,0.375-0.604,0.854-0.611C26.76,64.591,27.15,64.856,27.15,65.184L27.15,65.184z M27.15,65.184"/>
	<path fill="#637077" d="M30.196,64.665c0.057,0.322-0.273,0.652-0.746,0.74c-0.464,0.085-0.894-0.114-0.954-0.433
		c-0.058-0.33,0.279-0.661,0.743-0.746C29.712,64.145,30.136,64.338,30.196,64.665L30.196,64.665z M30.196,64.665"/>
</g>
</svg>