<?xml version="1.0" encoding="utf-8"?>
<!-- Generator: Adobe Illustrator 16.0.3, SVG Export Plug-In . SVG Version: 6.00 Build 0)  -->
<!DOCTYPE svg PUBLIC "-//W3C//DTD SVG 1.1//EN" "http://www.w3.org/Graphics/SVG/1.1/DTD/svg11.dtd">
<svg version="1.1" id="Layer_1" xmlns="http://www.w3.org/2000/svg" xmlns:xlink="http://www.w3.org/1999/xlink" x="0px" y="0px"
	 width="80px" height="80.5px" viewBox="0 0 80 80.5" enable-background="new 0 0 80 80.5" xml:space="preserve">
<g>
	<g>
		<path fill="#637077" d="M1.046,6.667c0-3.103,2.577-5.617,5.757-5.617h66.391c3.18,0,5.758,2.514,5.758,5.617v67.167
			c0,3.102-2.578,5.615-5.758,5.615H6.803c-3.18,0-5.757-2.514-5.757-5.615V6.667L1.046,6.667z"/>
		<path fill="#637077" d="M73.194,80.498H6.803c-3.752,0-6.804-2.99-6.804-6.664V6.667c0-3.675,3.052-6.665,6.804-6.665h66.391
			c3.753,0,6.806,2.99,6.806,6.665v67.167C80,77.508,76.947,80.498,73.194,80.498L73.194,80.498z M6.803,2.097
			c-2.597,0-4.709,2.049-4.709,4.569v67.167c0,2.518,2.113,4.568,4.709,4.568h66.391c2.598,0,4.71-2.051,4.71-4.568V6.667
			c0-2.52-2.112-4.569-4.71-4.569H6.803L6.803,2.097z"/>
	</g>
	<path fill-rule="evenodd" clip-rule="evenodd" fill="#FFFFFF" d="M24.662,66.678V31.275H12.895v35.402H24.662L24.662,66.678z
		 M18.778,26.444c4.103,0,6.657-2.721,6.657-6.117c-0.077-3.473-2.555-6.117-6.58-6.117c-4.025,0-6.656,2.644-6.656,6.117
		c0,3.396,2.554,6.117,6.502,6.117H18.778L18.778,26.444z"/>
	<path fill-rule="evenodd" clip-rule="evenodd" fill="#FFFFFF" d="M31.173,66.678h11.767V46.91c0-1.059,0.077-2.117,0.388-2.871
		c0.851-2.115,2.787-4.306,6.038-4.306c4.259,0,5.961,3.25,5.961,8.007v18.938h11.765V46.381c0-10.877-5.804-15.936-13.545-15.936
		c-6.35,0-9.136,3.549-10.685,5.964h0.078v-5.134H31.173C31.327,34.597,31.173,66.678,31.173,66.678L31.173,66.678z"/>
</g>
</svg>