<?xml version="1.0" encoding="utf-8"?>
<!-- Generator: Adobe Illustrator 16.0.3, SVG Export Plug-In . SVG Version: 6.00 Build 0)  -->
<!DOCTYPE svg PUBLIC "-//W3C//DTD SVG 1.1//EN" "http://www.w3.org/Graphics/SVG/1.1/DTD/svg11.dtd">
<svg version="1.1" id="Layer_1" xmlns="http://www.w3.org/2000/svg" xmlns:xlink="http://www.w3.org/1999/xlink" x="0px" y="0px"
	 width="59.24px" height="23.98px" viewBox="0 0 59.24 23.98" enable-background="new 0 0 59.24 23.98" xml:space="preserve">
<rect x="0.001" y="0.002" fill="#007AC2" width="59.238" height="23.976"/>
<path fill="#FFFFFF" d="M5.793,2.315h6.441l3.954,13.383h0.055l2.71-13.383h4.866l-4.092,19.299h-6.414L9.276,8.261H9.221
	L6.539,21.614H1.673L5.793,2.315z"/>
<path fill="#FFFFFF" d="M25.724,2.315h5.171l-1.521,7.383h6.111l1.521-7.383h5.17l-4.009,19.299h-5.171l1.715-8.267H28.6
	l-1.715,8.267h-5.17L25.724,2.315z"/>
<path fill="#FFFFFF" d="M55.777,6.685C54.781,6.214,53.427,5.8,51.52,5.8c-2.047,0-3.705,0.304-3.705,1.852
	c0,2.738,7.493,1.715,7.493,7.576c0,5.336-4.949,6.719-9.429,6.719c-1.99,0-4.286-0.47-5.973-0.995l1.217-3.927
	c1.023,0.664,3.069,1.106,4.756,1.106c1.604,0,4.119-0.304,4.119-2.295c0-3.097-7.492-1.936-7.492-7.382
	c0-4.977,4.368-6.471,8.599-6.471c2.378,0,4.617,0.25,5.917,0.857L55.777,6.685z"/>
</svg>